<mxfile host="Electron" agent="Mozilla/5.0 (Windows NT 10.0; Win64; x64) AppleWebKit/537.36 (KHTML, like Gecko) draw.io/26.2.2 Chrome/134.0.6998.178 Electron/35.1.2 Safari/537.36" version="26.2.2">
  <diagram name="Page-1" id="1U1I144F1UWDsiIZxiWH">
    <mxGraphModel dx="1898" dy="2394" grid="1" gridSize="10" guides="1" tooltips="1" connect="1" arrows="1" fold="1" page="1" pageScale="1" pageWidth="827" pageHeight="1169" math="0" shadow="0">
      <root>
        <mxCell id="0" />
        <mxCell id="1" parent="0" />
        <mxCell id="IQXNZcl4YT17YEq710Wv-3" style="edgeStyle=orthogonalEdgeStyle;rounded=0;orthogonalLoop=1;jettySize=auto;html=1;exitX=0.46;exitY=0.837;exitDx=0;exitDy=0;exitPerimeter=0;entryX=0.5;entryY=0;entryDx=0;entryDy=0;" parent="1" source="IQXNZcl4YT17YEq710Wv-2" edge="1">
          <mxGeometry relative="1" as="geometry">
            <mxPoint x="405" y="200" as="targetPoint" />
            <Array as="points">
              <mxPoint x="405" y="105" />
            </Array>
          </mxGeometry>
        </mxCell>
        <mxCell id="IQXNZcl4YT17YEq710Wv-2" value="" style="ellipse;html=1;shape=endState;fillColor=#000000;strokeColor=none;" parent="1" vertex="1">
          <mxGeometry x="390" y="-10" width="30" height="30" as="geometry" />
        </mxCell>
        <mxCell id="IQXNZcl4YT17YEq710Wv-9" value="" style="edgeStyle=orthogonalEdgeStyle;rounded=0;orthogonalLoop=1;jettySize=auto;html=1;" parent="1" source="IQXNZcl4YT17YEq710Wv-6" target="IQXNZcl4YT17YEq710Wv-8" edge="1">
          <mxGeometry relative="1" as="geometry" />
        </mxCell>
        <mxCell id="IQXNZcl4YT17YEq710Wv-6" value="&amp;nbsp;Enters&lt;div&gt;Email &amp;amp; Password&lt;/div&gt;" style="shape=parallelogram;perimeter=parallelogramPerimeter;whiteSpace=wrap;html=1;fixedSize=1;" parent="1" vertex="1">
          <mxGeometry x="340" y="200" width="130" height="60" as="geometry" />
        </mxCell>
        <mxCell id="IQXNZcl4YT17YEq710Wv-11" value="" style="edgeStyle=orthogonalEdgeStyle;rounded=0;orthogonalLoop=1;jettySize=auto;html=1;" parent="1" source="IQXNZcl4YT17YEq710Wv-8" target="IQXNZcl4YT17YEq710Wv-10" edge="1">
          <mxGeometry relative="1" as="geometry" />
        </mxCell>
        <mxCell id="IQXNZcl4YT17YEq710Wv-8" value="Validate" style="whiteSpace=wrap;html=1;" parent="1" vertex="1">
          <mxGeometry x="345" y="340" width="120" height="60" as="geometry" />
        </mxCell>
        <mxCell id="IQXNZcl4YT17YEq710Wv-16" value="" style="edgeStyle=orthogonalEdgeStyle;rounded=0;orthogonalLoop=1;jettySize=auto;html=1;" parent="1" source="IQXNZcl4YT17YEq710Wv-10" target="IQXNZcl4YT17YEq710Wv-15" edge="1">
          <mxGeometry relative="1" as="geometry" />
        </mxCell>
        <mxCell id="IQXNZcl4YT17YEq710Wv-20" value="&lt;font style=&quot;font-size: 14px;&quot;&gt;No&lt;/font&gt;" style="edgeLabel;html=1;align=center;verticalAlign=middle;resizable=0;points=[];" parent="IQXNZcl4YT17YEq710Wv-16" vertex="1" connectable="0">
          <mxGeometry x="-0.016" y="-2" relative="1" as="geometry">
            <mxPoint as="offset" />
          </mxGeometry>
        </mxCell>
        <mxCell id="IQXNZcl4YT17YEq710Wv-10" value="Valid ?" style="rhombus;whiteSpace=wrap;html=1;" parent="1" vertex="1">
          <mxGeometry x="365" y="470" width="80" height="80" as="geometry" />
        </mxCell>
        <mxCell id="YopNc7lcdvF3EePzv4qq-2" style="edgeStyle=orthogonalEdgeStyle;rounded=0;orthogonalLoop=1;jettySize=auto;html=1;" parent="1" source="IQXNZcl4YT17YEq710Wv-12" edge="1">
          <mxGeometry relative="1" as="geometry">
            <mxPoint x="400" y="790" as="targetPoint" />
          </mxGeometry>
        </mxCell>
        <mxCell id="IQXNZcl4YT17YEq710Wv-12" value="Display website" style="whiteSpace=wrap;html=1;" parent="1" vertex="1">
          <mxGeometry x="340" y="650" width="120" height="60" as="geometry" />
        </mxCell>
        <mxCell id="YopNc7lcdvF3EePzv4qq-1" style="edgeStyle=orthogonalEdgeStyle;rounded=0;orthogonalLoop=1;jettySize=auto;html=1;" parent="1" source="IQXNZcl4YT17YEq710Wv-15" target="IQXNZcl4YT17YEq710Wv-6" edge="1">
          <mxGeometry relative="1" as="geometry">
            <Array as="points">
              <mxPoint x="590" y="230" />
            </Array>
          </mxGeometry>
        </mxCell>
        <mxCell id="IQXNZcl4YT17YEq710Wv-15" value="Display &quot;Login failed&quot;" style="whiteSpace=wrap;html=1;shape=parallelogram;perimeter=parallelogramPerimeter;fixedSize=1;" parent="1" vertex="1">
          <mxGeometry x="530" y="340" width="140" height="60" as="geometry" />
        </mxCell>
        <mxCell id="IQXNZcl4YT17YEq710Wv-28" value="" style="ellipse;html=1;shape=endState;fillColor=#000000;strokeColor=default;" parent="1" vertex="1">
          <mxGeometry x="385" y="790" width="30" height="30" as="geometry" />
        </mxCell>
        <mxCell id="YopNc7lcdvF3EePzv4qq-3" value="&lt;font style=&quot;font-size: 1px;&quot;&gt;.&lt;/font&gt;" style="text;html=1;align=center;verticalAlign=middle;resizable=0;points=[];autosize=1;strokeColor=none;fillColor=none;" parent="1" vertex="1">
          <mxGeometry x="100" y="498" width="20" height="30" as="geometry" />
        </mxCell>
        <mxCell id="YopNc7lcdvF3EePzv4qq-4" value="&lt;font style=&quot;font-size: 1px;&quot;&gt;.&lt;/font&gt;" style="text;html=1;align=center;verticalAlign=middle;resizable=0;points=[];autosize=1;strokeColor=none;fillColor=none;" parent="1" vertex="1">
          <mxGeometry x="735" y="498" width="20" height="30" as="geometry" />
        </mxCell>
        <mxCell id="YopNc7lcdvF3EePzv4qq-5" value="&lt;font style=&quot;font-size: 1px;&quot;&gt;.&lt;/font&gt;" style="text;html=1;align=center;verticalAlign=middle;resizable=0;points=[];autosize=1;strokeColor=none;fillColor=none;" parent="1" vertex="1">
          <mxGeometry x="404" y="890" width="20" height="30" as="geometry" />
        </mxCell>
        <mxCell id="YopNc7lcdvF3EePzv4qq-6" value="&lt;font style=&quot;font-size: 1px;&quot;&gt;.&lt;/font&gt;" style="text;html=1;align=center;verticalAlign=middle;resizable=0;points=[];autosize=1;strokeColor=none;fillColor=none;" parent="1" vertex="1">
          <mxGeometry x="395" y="-10" width="20" height="30" as="geometry" />
        </mxCell>
        <mxCell id="1SfnH23leTst8hXvHy79-1" value="Proceed to login" style="whiteSpace=wrap;html=1;" parent="1" vertex="1">
          <mxGeometry x="345" y="80" width="120" height="60" as="geometry" />
        </mxCell>
        <mxCell id="1SfnH23leTst8hXvHy79-4" style="edgeStyle=orthogonalEdgeStyle;rounded=0;orthogonalLoop=1;jettySize=auto;html=1;entryX=0.542;entryY=0;entryDx=0;entryDy=0;entryPerimeter=0;" parent="1" source="IQXNZcl4YT17YEq710Wv-10" target="IQXNZcl4YT17YEq710Wv-12" edge="1">
          <mxGeometry relative="1" as="geometry" />
        </mxCell>
        <mxCell id="ijlifHDRgV5T-HMDNRjH-1" value="Yes" style="edgeLabel;html=1;align=center;verticalAlign=middle;resizable=0;points=[];" parent="1SfnH23leTst8hXvHy79-4" vertex="1" connectable="0">
          <mxGeometry x="-0.1395" y="1" relative="1" as="geometry">
            <mxPoint as="offset" />
          </mxGeometry>
        </mxCell>
        <mxCell id="ijlifHDRgV5T-HMDNRjH-2" value="&lt;font style=&quot;font-size: 1px;&quot;&gt;.&lt;/font&gt;" style="text;html=1;align=center;verticalAlign=middle;resizable=0;points=[];autosize=1;strokeColor=none;fillColor=none;" parent="1" vertex="1">
          <mxGeometry x="394" y="-60" width="20" height="30" as="geometry" />
        </mxCell>
        <mxCell id="ijlifHDRgV5T-HMDNRjH-3" value="&lt;font style=&quot;font-size: 18px;&quot;&gt;Figure 2.1 : Student and Admin Login FlowChart&lt;/font&gt;" style="text;strokeColor=none;align=center;fillColor=none;html=1;verticalAlign=middle;whiteSpace=wrap;rounded=0;" parent="1" vertex="1">
          <mxGeometry x="230" y="850" width="397.5" height="30" as="geometry" />
        </mxCell>
      </root>
    </mxGraphModel>
  </diagram>
</mxfile>
